<svg width="49" height="59" viewBox="0 0 49 59" fill="none" xmlns="http://www.w3.org/2000/svg">
<path d="M24.5 28.7595C18.0756 22.7113 9.47333 19 0 19V49.2406C9.47333 49.2406 18.0756 52.9519 24.5 59C30.9244 52.9794 39.5267 49.2406 49 49.2406V19C39.5267 19 30.9244 22.7113 24.5 28.7595ZM43.5556 44.0997C36.6683 45.0344 30.135 47.6735 24.5 51.8522C18.8922 47.6735 12.3317 45.0069 5.44444 44.0722V24.9656C11.1611 26.0103 16.4694 28.677 20.7978 32.7457L24.5 36.2646L28.2022 32.7732C32.5306 28.7045 37.8389 26.0378 43.5556 24.9931V44.0997Z" fill="#B8C1D4"/>
<path d="M43.5556 44.0997C36.6683 45.0344 30.135 47.6735 24.5 51.8522C18.8922 47.6735 12.3317 45.0069 5.44444 44.0722V24.9656C11.1611 26.0103 16.4694 28.677 20.7978 32.7457L24.5 36.2646L28.2022 32.7732C32.5306 28.7045 37.8389 26.0378 43.5556 24.9931V44.0997Z" fill="#E2E2E9"/>
<path d="M24.0286 8.72727V16H8V8.72727H24.0286ZM41.5143 8.72727V16H25.4857V8.72727H41.5143ZM32.7714 0V7.27273H16.7429V0H32.7714Z" fill="#B8C1D4"/>
</svg>
