<svg width="96" height="108" viewBox="0 0 96 108" fill="none" xmlns="http://www.w3.org/2000/svg">
<circle cx="23" cy="34" r="20" fill="#B8C1D4"/>
<circle cx="20" cy="20" r="20" transform="matrix(-1 0 0 1 93 57)" fill="#8790A3"/>
<path d="M15 30.0718L49.6166 30.0717C51.4731 30.0717 53.2536 29.3342 54.5663 28.0215L60.471 22.1168C62.326 20.2618 65.3335 20.2618 67.1885 22.1168C69.0435 23.9717 69.0435 26.9793 67.1885 28.8343L52.6928 43.33C50.8378 45.1849 50.8378 48.1925 52.6928 50.0475C54.5478 51.9025 57.5554 51.9025 59.4104 50.0475L73.906 35.5518C75.761 33.6968 78.7686 33.6968 80.6236 35.5518C82.4785 37.4068 82.4785 40.4143 80.6236 42.2693L74.7189 48.174C73.4061 49.4867 72.6686 51.2672 72.6686 53.1237L72.6686 73.1411" stroke="#B8C1D4" stroke-width="6"/>
<path d="M80.4409 77.369L45.8243 77.3691C43.9678 77.3691 42.1874 78.1066 40.8746 79.4193L34.9699 85.324C33.1149 87.179 30.1074 87.179 28.2524 85.324C26.3974 83.4691 26.3974 80.4615 28.2524 78.6065L42.7481 64.1108C44.6031 62.2559 44.6031 59.2483 42.7481 57.3933C40.8931 55.5383 37.8856 55.5383 36.0306 57.3933L21.5349 71.889C19.6799 73.744 16.6724 73.744 14.8174 71.889C12.9624 70.034 12.9624 67.0265 14.8174 65.1715L20.7221 59.2668C22.0348 57.9541 22.7723 56.1736 22.7723 54.3171L22.7723 34.2997" stroke="#8790A3" stroke-width="6"/>
<circle cx="16" cy="16" r="16" transform="matrix(-1 0 0 1 39 18)" fill="#8790A3"/>
<circle cx="16" cy="16" r="16" transform="matrix(-1 0 0 1 89 61)" fill="#B8C1D4"/>
</svg>
