<svg width="98" height="78" viewBox="0 0 98 78" fill="none" xmlns="http://www.w3.org/2000/svg">
<path fill-rule="evenodd" clip-rule="evenodd" d="M68.4923 0.118066C68.8989 0.113975 69.2559 0.110449 69.5621 0.110449C77.1308 0.11054 82.8258 1.7272 86.6462 4.95879C90.4657 8.19 92.376 12.3386 92.3764 17.4053C92.3764 19.9755 91.8353 22.5104 90.7544 25.0072C89.7453 27.4309 88.0156 29.6729 85.5649 31.7294C83.1861 33.7125 79.9764 35.3291 75.9396 36.5777V36.7986C81.6338 37.533 86.0674 38.9281 89.2391 40.9843C92.4829 42.9674 94.7569 45.3164 96.0544 48.034C97.3516 50.751 97.9997 53.6155 98 56.6262C98 60.8127 96.9531 64.5232 94.8627 67.7549C92.8443 70.9131 89.8877 73.4102 85.9951 75.2464C82.1028 77.0822 77.4542 78 72.0484 78C71.1293 78 69.944 77.9828 68.4923 77.9581V78C68.2699 77.9792 68.0374 77.9646 67.7955 77.9467C66.9212 77.9304 65.9604 77.9138 64.9132 77.8896C62.6814 77.7862 60.127 77.7221 57.2527 77.6915C56.5415 77.6847 55.8181 77.6783 55.0824 77.6763C54.7004 77.6747 54.3133 77.6729 53.9211 77.6725C51.3948 77.6747 48.9035 77.708 46.4471 77.7791C44.2298 77.7791 42.3344 77.837 40.7626 77.9429C40.5121 77.9617 40.272 77.9778 40.043 78V77.9924C40.0136 77.9948 39.9845 77.9975 39.9554 78V75.7986C40.7699 75.7515 41.5218 75.6781 42.2132 75.6006C43.6096 75.4368 44.7243 75.2141 45.5562 74.915C46.8537 74.4744 47.7203 73.5939 48.1528 72.2719C48.5852 70.9498 48.8001 68.9666 48.8001 66.3229V38.5963C47.2344 38.6923 45.9265 38.8985 44.8784 39.2209C43.6109 39.588 42.4179 40.3588 41.2994 41.5327C40.1056 42.6344 38.7596 44.3251 37.2673 46.602L20.9296 70.8398C19.7358 72.5291 19.4737 73.7426 20.1452 74.4771C20.8171 75.2111 22.4218 75.6518 24.9578 75.7986V78C22.1974 77.8531 19.9217 77.7791 18.1311 77.7791C16.2658 77.7057 14.6973 77.6725 13.4289 77.6725C11.5641 77.6725 9.3266 77.7057 6.71634 77.7791C4.03033 77.7791 1.79068 77.8531 0 78V75.7986C2.31298 75.2111 4.21513 74.4008 5.70737 73.3726C7.1995 72.3443 8.58156 70.9125 9.84988 69.0765L35.8357 33.2566L17.5714 10.2451C15.4077 7.52777 13.2433 5.58165 11.0797 4.40654C8.91603 3.23149 6.6762 2.49895 4.36334 2.20518V0C5.48252 0.0734465 6.86438 0.147452 8.50585 0.220898C10.1473 0.294344 11.9383 0.331348 13.8782 0.331348H18.0207C19.4378 0.257961 20.8924 0.220898 22.384 0.220898C23.8757 0.147477 25.3302 0.0734218 26.7473 0V2.20518C23.6156 2.27872 21.5648 2.9011 20.5945 4.0752C19.6246 5.17681 19.5852 6.79384 20.4803 8.92354C21.3756 11.0535 23.0553 13.6616 25.5175 16.7464L36.2622 30.1869C37.6798 31.9495 39.4709 33.4184 41.6345 34.5935C43.5732 35.6157 45.9619 36.1858 48.8001 36.3226V11.6771C48.8001 8.9601 48.5853 6.97658 48.1528 5.72813C47.7203 4.40636 46.8535 3.52559 45.5562 3.08496C44.7176 2.73326 43.5912 2.49531 42.179 2.3499C41.4969 2.28275 40.7564 2.22838 39.9554 2.20518V0C41.6714 0.0734388 43.836 0.14746 46.4471 0.220898C48.8504 0.290469 51.2872 0.323885 53.7574 0.327539C55.6508 0.325412 57.4986 0.307103 59.3011 0.281836C60.3416 0.264395 61.3551 0.249398 62.3394 0.220898C64.8749 0.147488 66.9258 0.0734105 68.4923 0V0.118066ZM59.4305 66.3229C59.4305 68.9668 59.653 70.9498 60.1006 72.2719C60.5481 73.5934 61.4427 74.4742 62.7849 74.915C63.2752 75.0854 63.864 75.2228 64.5439 75.3492C65.2649 75.4198 66.0713 75.4673 66.9655 75.4673C74.0298 75.4673 79.1492 73.8136 82.3209 70.5085C85.5641 67.1301 87.1867 62.3569 87.1868 56.1882C87.1868 50.5327 85.6721 46.16 82.6445 43.0752C79.689 39.9912 74.7871 38.4517 67.9402 38.4516H59.4305V66.3229ZM68.0315 2.22803C65.7249 2.32248 63.9749 2.60258 62.7849 3.08496C61.4428 3.52568 60.5483 4.40694 60.1006 5.72813C59.653 6.97658 59.4306 8.9601 59.4305 11.6771V36.5777H66.1012C70.354 36.5777 73.6329 35.7674 75.9396 34.1517C78.2461 32.4625 79.8339 30.2609 80.6989 27.5438C81.5638 24.7531 81.9972 21.778 81.9973 18.6202C81.9973 13.186 80.8077 9.10837 78.4297 6.39082C76.2935 3.80609 72.8262 2.41906 68.0315 2.22803Z" fill="black" fill-opacity="0.85"/>
</svg>
